M48
; DRILL file {KiCad 9.0.0} date 2025-03-21T00:34:30+0900
; FORMAT={-:-/ absolute / metric / decimal}
; #@! TF.CreationDate,2025-03-21T00:34:30+09:00
; #@! TF.GenerationSoftware,Kicad,Pcbnew,9.0.0
; #@! TF.FileFunction,Plated,1,2,PTH
FMAT,2
METRIC
; #@! TA.AperFunction,Plated,PTH,ViaDrill
T1C0.400
; #@! TA.AperFunction,Plated,PTH,ComponentDrill
T2C0.700
; #@! TA.AperFunction,Plated,PTH,ComponentDrill
T3C1.000
; #@! TA.AperFunction,Plated,PTH,ComponentDrill
T4C1.100
%
G90
G05
T1
X96.41Y-118.41
X96.91Y-100.91
X97.41Y-66.41
X97.41Y-83.41
X113.0Y-76.5
X113.0Y-94.0
X113.0Y-111.5
X114.5Y-127.0
X115.2Y-121.5
X115.5Y-80.0
X115.5Y-103.5
X115.5Y-123.0
X117.5Y-72.0
X127.0Y-95.0
X128.5Y-97.5
X134.5Y-79.0
X137.0Y-79.0
X139.0Y-79.0
X151.0Y-84.0
X151.0Y-88.0
X155.0Y-88.0
X155.0Y-107.08
X201.0Y-68.0
X201.0Y-83.0
T2
X113.0Y-69.5
X113.0Y-74.58
X113.0Y-87.0
X113.0Y-92.08
X113.0Y-104.46
X113.0Y-109.54
X113.0Y-121.96
X113.0Y-127.04
T3
X119.5Y-79.5
X119.5Y-82.04
X119.5Y-84.58
X119.5Y-87.12
X119.5Y-89.66
X119.5Y-92.2
X119.5Y-94.74
X119.5Y-97.28
X119.5Y-99.82
X119.5Y-102.36
X119.5Y-104.9
X119.5Y-107.44
X119.5Y-109.98
X119.5Y-112.52
X119.5Y-115.06
X145.0Y-79.5
X145.0Y-82.04
X145.0Y-84.58
X145.0Y-87.12
X145.0Y-89.66
X145.0Y-92.2
X145.0Y-94.74
X145.0Y-97.28
X145.0Y-99.82
X145.0Y-102.36
X145.0Y-104.9
X145.0Y-107.44
X145.0Y-109.98
X145.0Y-112.52
X145.0Y-115.06
X145.83Y-123.07
X145.99Y-74.76
X148.37Y-123.07
X148.53Y-74.76
X150.91Y-123.07
X151.07Y-74.76
X153.45Y-123.07
X153.61Y-74.76
X155.99Y-123.07
X156.15Y-74.76
X158.53Y-123.07
X158.69Y-74.76
X161.07Y-123.07
X163.61Y-123.07
X163.79Y-74.7
X166.33Y-74.7
X167.73Y-123.06
X168.87Y-74.7
X170.27Y-123.06
X171.41Y-74.7
X172.81Y-123.06
X173.95Y-74.7
X175.35Y-123.06
X175.5Y-85.92
X175.5Y-88.46
X175.5Y-91.0
X176.49Y-74.7
X177.89Y-123.06
X180.43Y-123.06
X182.97Y-123.06
X185.51Y-123.06
X199.0Y-99.46
X199.0Y-102.0
X199.0Y-104.54
X199.0Y-107.08
X199.0Y-109.62
X199.0Y-112.16
T4
X196.0Y-65.0
X199.23Y-85.96
X199.23Y-88.5
X199.23Y-91.04
X202.0Y-65.0
M30
