M48
; DRILL file {KiCad 9.0.0} date 2025-03-21T00:34:30+0900
; FORMAT={-:-/ absolute / metric / decimal}
; #@! TF.CreationDate,2025-03-21T00:34:30+09:00
; #@! TF.GenerationSoftware,Kicad,Pcbnew,9.0.0
; #@! TF.FileFunction,NonPlated,1,2,NPTH
FMAT,2
METRIC
; #@! TA.AperFunction,NonPlated,NPTH,ComponentDrill
T1C1.700
; #@! TA.AperFunction,NonPlated,NPTH,ComponentDrill
T2C2.950
; #@! TA.AperFunction,NonPlated,NPTH,ComponentDrill
T3C3.500
; #@! TA.AperFunction,NonPlated,NPTH,ComponentDrill
T4C3.980
%
G90
G05
T1
X99.0Y-67.42
X99.0Y-77.58
X99.0Y-84.42
X99.0Y-94.58
X99.0Y-101.92
X99.0Y-112.08
X99.0Y-119.42
X99.0Y-129.58
T2
X93.92Y-69.96
X93.92Y-86.96
X93.92Y-104.46
X93.92Y-121.96
X96.46Y-76.31
X96.46Y-93.31
X96.46Y-110.81
X96.46Y-128.31
T3
X182.57Y-88.5
T4
X99.0Y-72.5
X99.0Y-89.5
X99.0Y-107.0
X99.0Y-124.5
M30
