%TF.GenerationSoftware,KiCad,Pcbnew,9.0.0*%
%TF.CreationDate,2025-03-21T00:34:27+09:00*%
%TF.ProjectId,osuino_v1,6f737569-6e6f-45f7-9631-2e6b69636164,rev?*%
%TF.SameCoordinates,Original*%
%TF.FileFunction,Copper,L1,Top*%
%TF.FilePolarity,Positive*%
%FSLAX46Y46*%
G04 Gerber Fmt 4.6, Leading zero omitted, Abs format (unit mm)*
G04 Created by KiCad (PCBNEW 9.0.0) date 2025-03-21 00:34:27*
%MOMM*%
%LPD*%
G01*
G04 APERTURE LIST*
%TA.AperFunction,ComponentPad*%
%ADD10R,2.000000X1.905000*%
%TD*%
%TA.AperFunction,ComponentPad*%
%ADD11O,2.000000X1.905000*%
%TD*%
%TA.AperFunction,ComponentPad*%
%ADD12C,1.400000*%
%TD*%
%TA.AperFunction,ComponentPad*%
%ADD13O,1.400000X1.400000*%
%TD*%
%TA.AperFunction,ComponentPad*%
%ADD14R,1.700000X1.700000*%
%TD*%
%TA.AperFunction,ComponentPad*%
%ADD15O,1.700000X1.700000*%
%TD*%
%TA.AperFunction,ViaPad*%
%ADD16C,0.800000*%
%TD*%
%TA.AperFunction,Conductor*%
%ADD17C,0.200000*%
%TD*%
G04 APERTURE END LIST*
D10*
%TO.P,U1,1,GND*%
%TO.N,GND*%
X199230000Y-85960000D03*
D11*
%TO.P,U1,2,VO*%
%TO.N,Net-(J5-Pin_15)*%
X199230000Y-88500000D03*
%TO.P,U1,3,VI*%
%TO.N,VCC*%
X199230000Y-91040000D03*
%TD*%
D12*
%TO.P,R2,1*%
%TO.N,GND*%
X113000000Y-92080000D03*
D13*
%TO.P,R2,2*%
%TO.N,Net-(J6-Pin_5)*%
X113000000Y-87000000D03*
%TD*%
D11*
%TO.P,,3,VI*%
%TO.N,VCC*%
X196000000Y-65000000D03*
%TD*%
D14*
%TO.P,J8,1,Pin_1*%
%TO.N,Net-(J5-Pin_8)*%
X199000000Y-99460000D03*
D15*
%TO.P,J8,2,Pin_2*%
%TO.N,Net-(J5-Pin_7)*%
X199000000Y-102000000D03*
%TO.P,J8,3,Pin_3*%
%TO.N,Net-(J5-Pin_1)*%
X199000000Y-104540000D03*
%TO.P,J8,4,Pin_4*%
%TO.N,Net-(J5-Pin_6)*%
X199000000Y-107080000D03*
%TO.P,J8,5,Pin_5*%
%TO.N,Net-(J3-Pin_3)*%
X199000000Y-109620000D03*
%TO.P,J8,6,Pin_6*%
%TO.N,GND*%
X199000000Y-112160000D03*
%TD*%
D14*
%TO.P,J3,1,Pin_1*%
%TO.N,unconnected-(J3-Pin_1-Pad1)*%
X176490000Y-74700000D03*
D15*
%TO.P,J3,2,Pin_2*%
%TO.N,unconnected-(J3-Pin_2-Pad2)*%
X173950000Y-74700000D03*
%TO.P,J3,3,Pin_3*%
%TO.N,Net-(J3-Pin_3)*%
X171410000Y-74700000D03*
%TO.P,J3,4,Pin_4*%
%TO.N,unconnected-(J3-Pin_4-Pad4)*%
X168870000Y-74700000D03*
%TO.P,J3,5,Pin_5*%
%TO.N,GND*%
X166330000Y-74700000D03*
%TO.P,J3,6,Pin_6*%
%TO.N,unconnected-(J3-Pin_6-Pad6)*%
X163790000Y-74700000D03*
%TD*%
D14*
%TO.P,J4,1,Pin_1*%
%TO.N,Net-(J4-Pin_1)*%
X158690000Y-74760000D03*
D15*
%TO.P,J4,2,Pin_2*%
%TO.N,Net-(J4-Pin_2)*%
X156150000Y-74760000D03*
%TO.P,J4,3,Pin_3*%
%TO.N,Net-(J4-Pin_3)*%
X153610000Y-74760000D03*
%TO.P,J4,4,Pin_4*%
%TO.N,Net-(J4-Pin_4)*%
X151070000Y-74760000D03*
%TO.P,J4,5,Pin_5*%
%TO.N,Net-(J4-Pin_5)*%
X148530000Y-74760000D03*
%TO.P,J4,6,Pin_6*%
%TO.N,unconnected-(J4-Pin_6-Pad6)*%
X145990000Y-74760000D03*
%TD*%
D12*
%TO.P,R3,1*%
%TO.N,GND*%
X113000000Y-109540000D03*
D13*
%TO.P,R3,2*%
%TO.N,Net-(J5-Pin_5)*%
X113000000Y-104460000D03*
%TD*%
D12*
%TO.P,R4,1*%
%TO.N,GND*%
X113000000Y-127040000D03*
D13*
%TO.P,R4,2*%
%TO.N,Net-(J5-Pin_2)*%
X113000000Y-121960000D03*
%TD*%
D14*
%TO.P,J1,1,Pin_1*%
%TO.N,unconnected-(J1-Pin_1-Pad1)*%
X185510000Y-123060000D03*
D15*
%TO.P,J1,2,Pin_2*%
%TO.N,unconnected-(J1-Pin_2-Pad2)*%
X182970000Y-123060000D03*
%TO.P,J1,3,Pin_3*%
%TO.N,unconnected-(J1-Pin_3-Pad3)*%
X180430000Y-123060000D03*
%TO.P,J1,4,Pin_4*%
%TO.N,unconnected-(J1-Pin_4-Pad4)*%
X177890000Y-123060000D03*
%TO.P,J1,5,Pin_5*%
%TO.N,unconnected-(J1-Pin_5-Pad5)*%
X175350000Y-123060000D03*
%TO.P,J1,6,Pin_6*%
%TO.N,unconnected-(J1-Pin_6-Pad6)*%
X172810000Y-123060000D03*
%TO.P,J1,7,Pin_7*%
%TO.N,Net-(J1-Pin_7)*%
X170270000Y-123060000D03*
%TO.P,J1,8,Pin_8*%
%TO.N,Net-(J1-Pin_8)*%
X167730000Y-123060000D03*
%TD*%
D10*
%TO.P,,1,GND*%
%TO.N,GND*%
X202000000Y-65000000D03*
%TD*%
D14*
%TO.P,J5,1,Pin_1*%
%TO.N,Net-(J5-Pin_1)*%
X145000000Y-115060000D03*
D15*
%TO.P,J5,2,Pin_2*%
%TO.N,Net-(J5-Pin_2)*%
X145000000Y-112520000D03*
%TO.P,J5,3,Pin_3*%
%TO.N,unconnected-(J5-Pin_3-Pad3)*%
X145000000Y-109980000D03*
%TO.P,J5,4,Pin_4*%
%TO.N,unconnected-(J5-Pin_4-Pad4)*%
X145000000Y-107440000D03*
%TO.P,J5,5,Pin_5*%
%TO.N,Net-(J5-Pin_5)*%
X145000000Y-104900000D03*
%TO.P,J5,6,Pin_6*%
%TO.N,Net-(J5-Pin_6)*%
X145000000Y-102360000D03*
%TO.P,J5,7,Pin_7*%
%TO.N,Net-(J5-Pin_7)*%
X145000000Y-99820000D03*
%TO.P,J5,8,Pin_8*%
%TO.N,Net-(J5-Pin_8)*%
X145000000Y-97280000D03*
%TO.P,J5,9,Pin_9*%
%TO.N,Net-(J2-Pin_4)*%
X145000000Y-94740000D03*
%TO.P,J5,10,Pin_10*%
%TO.N,Net-(J2-Pin_3)*%
X145000000Y-92200000D03*
%TO.P,J5,11,Pin_11*%
%TO.N,Net-(J4-Pin_2)*%
X145000000Y-89660000D03*
%TO.P,J5,12,Pin_12*%
%TO.N,Net-(J4-Pin_1)*%
X145000000Y-87120000D03*
%TO.P,J5,13,Pin_13*%
%TO.N,Net-(J4-Pin_3)*%
X145000000Y-84580000D03*
%TO.P,J5,14,Pin_14*%
%TO.N,GND*%
X145000000Y-82040000D03*
%TO.P,J5,15,Pin_15*%
%TO.N,Net-(J5-Pin_15)*%
X145000000Y-79500000D03*
%TD*%
D12*
%TO.P,R1,1*%
%TO.N,GND*%
X113000000Y-74580000D03*
D13*
%TO.P,R1,2*%
%TO.N,Net-(J6-Pin_4)*%
X113000000Y-69500000D03*
%TD*%
D14*
%TO.P,J7,1,Pin_1*%
%TO.N,VCC*%
X175500000Y-85920000D03*
D15*
%TO.P,J7,2,Pin_2*%
%TO.N,GND*%
X175500000Y-88460000D03*
%TO.P,J7,3,Pin_3*%
%TO.N,Net-(J3-Pin_3)*%
X175500000Y-91000000D03*
%TD*%
D14*
%TO.P,J6,1,Pin_1*%
%TO.N,unconnected-(J6-Pin_1-Pad1)*%
X119500000Y-115060000D03*
D15*
%TO.P,J6,2,Pin_2*%
%TO.N,unconnected-(J6-Pin_2-Pad2)*%
X119500000Y-112520000D03*
%TO.P,J6,3,Pin_3*%
%TO.N,unconnected-(J6-Pin_3-Pad3)*%
X119500000Y-109980000D03*
%TO.P,J6,4,Pin_4*%
%TO.N,Net-(J6-Pin_4)*%
X119500000Y-107440000D03*
%TO.P,J6,5,Pin_5*%
%TO.N,Net-(J6-Pin_5)*%
X119500000Y-104900000D03*
%TO.P,J6,6,Pin_6*%
%TO.N,Net-(J4-Pin_5)*%
X119500000Y-102360000D03*
%TO.P,J6,7,Pin_7*%
%TO.N,Net-(J4-Pin_4)*%
X119500000Y-99820000D03*
%TO.P,J6,8,Pin_8*%
%TO.N,Net-(J2-Pin_5)*%
X119500000Y-97280000D03*
%TO.P,J6,9,Pin_9*%
%TO.N,Net-(J2-Pin_6)*%
X119500000Y-94740000D03*
%TO.P,J6,10,Pin_10*%
%TO.N,Net-(J2-Pin_2)*%
X119500000Y-92200000D03*
%TO.P,J6,11,Pin_11*%
%TO.N,Net-(J2-Pin_1)*%
X119500000Y-89660000D03*
%TO.P,J6,12,Pin_12*%
%TO.N,Net-(J1-Pin_8)*%
X119500000Y-87120000D03*
%TO.P,J6,13,Pin_13*%
%TO.N,Net-(J1-Pin_7)*%
X119500000Y-84580000D03*
%TO.P,J6,14,Pin_14*%
%TO.N,unconnected-(J6-Pin_14-Pad14)*%
X119500000Y-82040000D03*
%TO.P,J6,15,Pin_15*%
%TO.N,unconnected-(J6-Pin_15-Pad15)*%
X119500000Y-79500000D03*
%TD*%
D14*
%TO.P,J2,1,Pin_1*%
%TO.N,Net-(J2-Pin_1)*%
X163610000Y-123070000D03*
D15*
%TO.P,J2,2,Pin_2*%
%TO.N,Net-(J2-Pin_2)*%
X161070000Y-123070000D03*
%TO.P,J2,3,Pin_3*%
%TO.N,Net-(J2-Pin_3)*%
X158530000Y-123070000D03*
%TO.P,J2,4,Pin_4*%
%TO.N,Net-(J2-Pin_4)*%
X155990000Y-123070000D03*
%TO.P,J2,5,Pin_5*%
%TO.N,Net-(J2-Pin_5)*%
X153450000Y-123070000D03*
%TO.P,J2,6,Pin_6*%
%TO.N,Net-(J2-Pin_6)*%
X150910000Y-123070000D03*
%TO.P,J2,7,Pin_7*%
%TO.N,unconnected-(J2-Pin_7-Pad7)*%
X148370000Y-123070000D03*
%TO.P,J2,8,Pin_8*%
%TO.N,unconnected-(J2-Pin_8-Pad8)*%
X145830000Y-123070000D03*
%TD*%
D16*
%TO.N,Net-(J5-Pin_2)*%
X115500000Y-123000000D03*
%TO.N,Net-(J5-Pin_5)*%
X115200000Y-121500000D03*
%TO.N,Net-(J6-Pin_4)*%
X97410000Y-66410000D03*
%TO.N,Net-(J6-Pin_5)*%
X97410000Y-83410000D03*
%TO.N,Net-(J5-Pin_5)*%
X96910000Y-100910000D03*
%TO.N,Net-(J5-Pin_2)*%
X96410000Y-118410000D03*
%TO.N,GND*%
X114500000Y-127000000D03*
X113000000Y-111500000D03*
X113000000Y-94000000D03*
X113000000Y-76500000D03*
%TO.N,Net-(J2-Pin_6)*%
X127000000Y-95000000D03*
%TO.N,Net-(J2-Pin_5)*%
X128500000Y-97500000D03*
%TO.N,Net-(J4-Pin_3)*%
X139000000Y-79000000D03*
%TO.N,Net-(J4-Pin_2)*%
X137000000Y-79000000D03*
%TO.N,Net-(J4-Pin_1)*%
X151000000Y-84000000D03*
%TO.N,Net-(J5-Pin_6)*%
X155000000Y-107080000D03*
%TO.N,Net-(J6-Pin_4)*%
X117500000Y-72000000D03*
%TO.N,Net-(J6-Pin_5)*%
X115500000Y-103500000D03*
%TO.N,VCC*%
X201000000Y-68000000D03*
X115500000Y-80000000D03*
X201000000Y-83000000D03*
%TO.N,GND*%
X134500000Y-79000000D03*
X155000000Y-88000000D03*
X151000000Y-88000000D03*
%TD*%
D17*
%TO.N,Net-(J5-Pin_5)*%
X127900000Y-122000000D02*
X145000000Y-104900000D01*
X115200000Y-121500000D02*
X115700000Y-122000000D01*
X115700000Y-122000000D02*
X127900000Y-122000000D01*
%TO.N,Net-(J6-Pin_4)*%
X102500000Y-69500000D02*
X98000000Y-69500000D01*
X97410000Y-66410000D02*
X97410000Y-68910000D01*
X97410000Y-68910000D02*
X98000000Y-69500000D01*
%TO.N,Net-(J6-Pin_5)*%
X97410000Y-83410000D02*
X97500000Y-83500000D01*
X97500000Y-83500000D02*
X97500000Y-87000000D01*
%TO.N,Net-(J5-Pin_5)*%
X96910000Y-100910000D02*
X97540000Y-101540000D01*
X97540000Y-101540000D02*
X97540000Y-104460000D01*
%TO.N,Net-(J5-Pin_2)*%
X97540000Y-121960000D02*
X97540000Y-119540000D01*
X97540000Y-119540000D02*
X96410000Y-118410000D01*
%TO.N,GND*%
X114500000Y-127000000D02*
X114500000Y-111500000D01*
X113000000Y-111500000D02*
X114500000Y-111500000D01*
X114500000Y-108040000D02*
X114500000Y-94000000D01*
X113000000Y-94000000D02*
X114500000Y-94000000D01*
X114500000Y-90500000D02*
X114500000Y-77000000D01*
X113500000Y-77000000D02*
X114500000Y-77000000D01*
X113000000Y-76500000D02*
X113500000Y-77000000D01*
X114500000Y-77000000D02*
X114500000Y-73580000D01*
X114500000Y-73580000D02*
X115000000Y-73080000D01*
%TO.N,Net-(J1-Pin_8)*%
X118349000Y-92676760D02*
X118349000Y-88271000D01*
X158830000Y-125500000D02*
X157230000Y-123900000D01*
X119118340Y-93446100D02*
X118349000Y-92676760D01*
X157230000Y-93446100D02*
X119118340Y-93446100D01*
X167730000Y-123060000D02*
X165290000Y-125500000D01*
X118349000Y-88271000D02*
X119500000Y-87120000D01*
X157230000Y-123900000D02*
X157230000Y-93446100D01*
X165290000Y-125500000D02*
X158830000Y-125500000D01*
%TO.N,Net-(J1-Pin_7)*%
X170270000Y-123060000D02*
X170270000Y-97202900D01*
X140560000Y-80770000D02*
X136750000Y-84580000D01*
X153837100Y-80770000D02*
X140560000Y-80770000D01*
X170270000Y-97202900D02*
X153837100Y-80770000D01*
X136750000Y-84580000D02*
X119500000Y-84580000D01*
%TO.N,Net-(J2-Pin_1)*%
X120651000Y-88509000D02*
X119500000Y-89660000D01*
X163610000Y-123070000D02*
X163610000Y-92610000D01*
X146467760Y-89500000D02*
X145476760Y-88509000D01*
X160500000Y-89500000D02*
X146467760Y-89500000D01*
X163610000Y-92610000D02*
X160500000Y-89500000D01*
X145476760Y-88509000D02*
X120651000Y-88509000D01*
%TO.N,Net-(J2-Pin_6)*%
X126740000Y-94740000D02*
X119500000Y-94740000D01*
X127000000Y-95000000D02*
X126740000Y-94740000D01*
%TO.N,Net-(J2-Pin_2)*%
X160500000Y-91000000D02*
X161070000Y-91570000D01*
X126000000Y-91000000D02*
X160500000Y-91000000D01*
X119500000Y-92200000D02*
X124800000Y-92200000D01*
X161070000Y-91570000D02*
X161070000Y-123070000D01*
X124800000Y-92200000D02*
X126000000Y-91000000D01*
%TO.N,Net-(J2-Pin_5)*%
X128500000Y-97500000D02*
X128280000Y-97280000D01*
X128280000Y-97280000D02*
X119500000Y-97280000D01*
%TO.N,Net-(J3-Pin_3)*%
X201000000Y-109610000D02*
X199010000Y-109610000D01*
X171500000Y-91000000D02*
X171410000Y-90910000D01*
X199010000Y-109610000D02*
X199000000Y-109620000D01*
X200500000Y-94000000D02*
X201000000Y-94500000D01*
X175500000Y-91000000D02*
X178500000Y-94000000D01*
X175500000Y-91000000D02*
X171500000Y-91000000D01*
X171410000Y-90910000D02*
X171410000Y-74700000D01*
X201000000Y-94500000D02*
X201000000Y-109610000D01*
X178500000Y-94000000D02*
X200500000Y-94000000D01*
%TO.N,Net-(J4-Pin_3)*%
X150870000Y-77500000D02*
X139000000Y-77500000D01*
X139000000Y-77500000D02*
X139000000Y-79000000D01*
X153610000Y-74760000D02*
X150870000Y-77500000D01*
%TO.N,Net-(J4-Pin_2)*%
X139000000Y-72500000D02*
X137000000Y-74500000D01*
X156150000Y-74760000D02*
X153890000Y-72500000D01*
X153890000Y-72500000D02*
X139000000Y-72500000D01*
X137000000Y-74500000D02*
X137000000Y-79000000D01*
%TO.N,Net-(J4-Pin_1)*%
X148120000Y-84000000D02*
X145000000Y-87120000D01*
X151000000Y-84000000D02*
X148120000Y-84000000D01*
%TO.N,Net-(J5-Pin_5)*%
X113000000Y-104460000D02*
X97540000Y-104460000D01*
%TO.N,Net-(J5-Pin_2)*%
X113000000Y-121960000D02*
X97540000Y-121960000D01*
%TO.N,Net-(J5-Pin_6)*%
X149720000Y-107080000D02*
X145000000Y-102360000D01*
X155000000Y-107080000D02*
X149720000Y-107080000D01*
%TO.N,Net-(J6-Pin_4)*%
X115000000Y-69500000D02*
X117500000Y-72000000D01*
X113000000Y-69500000D02*
X115000000Y-69500000D01*
X113000000Y-69500000D02*
X102500000Y-69500000D01*
%TO.N,Net-(J6-Pin_5)*%
X119400000Y-105000000D02*
X119500000Y-104900000D01*
X113000000Y-87000000D02*
X97500000Y-87000000D01*
X115500000Y-103500000D02*
X117000000Y-105000000D01*
X117000000Y-105000000D02*
X119400000Y-105000000D01*
%TO.N,VCC*%
X201000000Y-68000000D02*
X201000000Y-83000000D01*
X173000000Y-87500000D02*
X173000000Y-89000000D01*
X173000000Y-89000000D02*
X173611000Y-89611000D01*
X174580000Y-85920000D02*
X173000000Y-87500000D01*
X179040000Y-91040000D02*
X199230000Y-91040000D01*
X139069000Y-80651000D02*
X140220000Y-79500000D01*
X116151000Y-80651000D02*
X139069000Y-80651000D01*
X177611000Y-89611000D02*
X179040000Y-91040000D01*
X175500000Y-85920000D02*
X174580000Y-85920000D01*
X115500000Y-80000000D02*
X116151000Y-80651000D01*
X140220000Y-79500000D02*
X145000000Y-79500000D01*
X173611000Y-89611000D02*
X177611000Y-89611000D01*
%TO.N,Net-(J2-Pin_4)*%
X155990000Y-95010000D02*
X156000000Y-95000000D01*
X156000000Y-95000000D02*
X155740000Y-94740000D01*
X155990000Y-123070000D02*
X155990000Y-95010000D01*
X155740000Y-94740000D02*
X145000000Y-94740000D01*
%TO.N,GND*%
X199000000Y-112160000D02*
X201340000Y-112160000D01*
X195500000Y-72500000D02*
X167000000Y-72500000D01*
X132580000Y-73080000D02*
X134500000Y-75000000D01*
X181040000Y-85960000D02*
X178500000Y-88500000D01*
X199230000Y-85960000D02*
X199230000Y-76230000D01*
X199230000Y-85960000D02*
X181040000Y-85960000D01*
X134500000Y-75000000D02*
X134500000Y-79000000D01*
X178460000Y-88460000D02*
X175500000Y-88460000D01*
X178500000Y-88500000D02*
X178460000Y-88460000D01*
X150540000Y-82040000D02*
X155000000Y-86500000D01*
X145000000Y-82040000D02*
X150540000Y-82040000D01*
X114500000Y-108000000D02*
X114500000Y-108040000D01*
X195500000Y-71500000D02*
X195500000Y-72500000D01*
X114500000Y-94000000D02*
X114500000Y-90500000D01*
X155000000Y-86500000D02*
X155000000Y-88000000D01*
X115000000Y-73080000D02*
X132580000Y-73080000D01*
X201340000Y-112160000D02*
X202730000Y-110770000D01*
X202730000Y-89460000D02*
X199230000Y-85960000D01*
X202000000Y-65000000D02*
X195500000Y-71500000D01*
X202730000Y-110770000D02*
X202730000Y-89460000D01*
X167000000Y-74030000D02*
X166330000Y-74700000D01*
X114500000Y-111500000D02*
X114500000Y-108000000D01*
X167000000Y-72500000D02*
X167000000Y-74030000D01*
X151000000Y-88000000D02*
X155000000Y-88000000D01*
X199230000Y-76230000D02*
X195500000Y-72500000D01*
%TO.N,Net-(J2-Pin_3)*%
X158200000Y-92200000D02*
X145000000Y-92200000D01*
X158530000Y-123070000D02*
X158530000Y-92530000D01*
X158530000Y-92530000D02*
X158200000Y-92200000D01*
%TO.N,Net-(J5-Pin_2)*%
X134520000Y-123000000D02*
X145000000Y-112520000D01*
X115500000Y-123000000D02*
X134520000Y-123000000D01*
%TD*%
M02*
